<svg xmlns="http://www.w3.org/2000/svg" viewBox="0 0 100 100" width="100" height="100">
  <rect width="100" height="100" fill="#2d3339" rx="20" ry="20" />
  
  <!-- 交差する線のパターン - シンプル化 -->
  <!-- 黄色/オレンジ色の線 -->
  <g transform="rotate(45, 50, 50)">
    <rect x="30" y="10" width="8" height="80" rx="4" fill="#ffc048" />
    <rect x="62" y="10" width="8" height="80" rx="4" fill="#ffc048" />
  </g>
  
  <!-- ターコイズの線 -->
  <g transform="rotate(-45, 50, 50)">
    <rect x="30" y="10" width="8" height="80" rx="4" fill="#5ce1e6" />
    <rect x="62" y="10" width="8" height="80" rx="4" fill="#5ce1e6" />
  </g>
  
  <!-- 赤/オレンジ色の線 -->
  <g transform="rotate(90, 50, 50)">
    <rect x="30" y="22" width="8" height="56" rx="4" fill="#ff6b6b" />
    <rect x="62" y="22" width="8" height="56" rx="4" fill="#ff6b6b" />
  </g>
  
  <!-- 青色の線 -->
  <g transform="rotate(0, 50, 50)">
    <rect x="22" y="30" width="56" height="8" rx="4" fill="#2bb9e0" />
    <rect x="22" y="62" width="56" height="8" rx="4" fill="#2bb9e0" />
  </g>
  
  <!-- 小さな丸のアクセント -->
  <circle cx="80" cy="25" r="2" fill="#5ce1e6" />
  <circle cx="20" cy="75" r="2" fill="#ff6b6b" />
  <circle cx="50" cy="20" r="2" fill="#ffc048" />
  <circle cx="75" cy="75" r="2" fill="#5ce1e6" />
</svg> 